<svg xmlns="http://www.w3.org/2000/svg" width="20" height="20" viewBox="0 0 1000 1000">
  <defs>
    <style>
      .cls-1 {
        fill: #fff;
        fill-rule: evenodd;
      }
    </style>
  </defs>
  <path id="Color_Fill_1" data-name="Color Fill 1" class="cls-1" d="M736,46c142.144-1.763,220.938,70.886,251,181,8.562,31.361,9.953,81.179,1,114-6.751,24.75-15.837,48.142-28,68-30.05,49.062-78.093,86.907-139,105-22,6.537-67.584,2.649-87,11L369,757q4.5,19,9,38c11.359,71.217-42.071,128.675-85,147-87.726,37.446-191.154-24.7-197-103h1c34.95,17.19,75.257,52.032,111,63,66.023,20.26,123.5-31.41,123-92-0.742-89.809-93.155-91.49-137-135,21.967-18.418,73.889,4.133,90-2L488,353l30-51V263c4.121-24.557,7.642-47.618,16-68,25-60.975,72.068-107.946,133-133C687.675,53.5,713.006,55.148,736,46Zm20,84-42,6c-47.029,14.338-83.241,47.418-101,91-40.672,99.809,44.632,223.672,146,212,27.111-3.122,50.839-6.894,70-18,58.39-33.844,112.785-125.268,64-209-20.57-35.305-51.2-63.037-94-76Zm-18,38c66.213-1.05,107.247,22.908,126,68,34.665,83.353-23.006,150.779-91,163-86.664,15.577-158.419-73.014-127-157,11.072-29.6,37.051-55.153,66-67ZM0,583L177,686c32.064,19.21,68.492,33.757,98,56,21.75,16.395,41.692,54.9,27,92-12.584,31.78-55.417,63.337-102,44L0,761V583Z"/>
</svg>
